D:\Gebruiker\Documents\~school~\WTK\thesis\model\3dpredictsim_Lars\Results\Test_Lars\Test1_bCst_pas_GRF.mot
nRows=22
nColumns=19

name D:\Gebruiker\Documents\~school~\WTK\thesis\model\3dpredictsim_Lars\Results\Test_Lars\Test1_bCst_pas_GRF.mot
datacolumns 19
datarows 22
range 0.0000000000 0.2316357427
endheader
time 	ground_force_vx	ground_force_vy	ground_force_vz	ground_force_px	ground_force_py	ground_force_pz	1_ground_force_vx	1_ground_force_vy	1_ground_force_vz	1_ground_force_px	1_ground_force_py	1_ground_force_pz	ground_torque_x	ground_torque_y	ground_torque_z	1_ground_torque_x	1_ground_torque_y	1_ground_torque_z
        0.0000000000	      -95.5364234235	       86.2714245739	       36.5566305849	        0.1743138169	        0.0000000000	        0.0384535794	       94.7083646433	      508.8886620549	       -3.6523014819	       -0.3126333300	        0.0000000000	       -0.0377124540	        0.0000000000	        0.0000000000	        0.0000000000	        0.0000000000	        0.0000000000	        0.0000000000	
        0.0110302735	      -82.4713038845	      182.6543834168	       72.4354415458	        0.1807054167	        0.0000000000	        0.0368628356	       78.5501403082	      429.7123187568	       -8.2306797321	       -0.3092971476	        0.0000000000	       -0.0368174466	        0.0000000000	        0.0000000000	        0.0000000000	        0.0000000000	        0.0000000000	        0.0000000000	
        0.0220605469	      -36.8408957277	      325.5090452469	       15.1004174692	        0.1841236879	        0.0000000000	        0.0349235672	       63.0276700209	      346.9869376890	       -6.6749207199	       -0.3043925384	        0.0000000000	       -0.0351048326	        0.0000000000	        0.0000000000	        0.0000000000	        0.0000000000	        0.0000000000	        0.0000000000	
        0.0330908204	      -39.4199388481	      456.3631157825	       -0.5588668315	        0.1871169295	        0.0000000000	        0.0351596942	       40.8477093174	      257.5474469778	       -4.8958989488	       -0.2965115934	        0.0000000000	       -0.0319077852	        0.0000000000	        0.0000000000	        0.0000000000	        0.0000000000	        0.0000000000	        0.0000000000	
        0.0441210939	      -71.2371646828	      609.1488332206	       -5.6379553091	        0.1943559172	        0.0000000000	        0.0374186004	       16.6478391740	      168.6488566514	       -8.4690614123	       -0.2825490164	        0.0000000000	       -0.0255599774	        0.0000000000	        0.0000000000	        0.0000000000	        0.0000000000	        0.0000000000	        0.0000000000	
        0.0551513673	      -95.3060748912	      734.0366095581	      -10.0610331632	        0.2007852923	        0.0000000000	        0.0393750419	        3.4376050951	      130.0054050968	      -11.9892323163	       -0.2760986948	        0.0000000000	       -0.0222595535	        0.0000000000	        0.0000000000	        0.0000000000	        0.0000000000	        0.0000000000	        0.0000000000	
        0.0661816408	     -103.4730056984	      794.2849213103	      -11.9675925702	        0.2053581127	        0.0000000000	        0.0406527156	        1.0073851078	       99.6462837828	      -12.7454500379	       -0.2755889449	        0.0000000000	       -0.0223570780	        0.0000000000	        0.0000000000	        0.0000000000	        0.0000000000	        0.0000000000	        0.0000000000	
        0.0772119142	     -100.9692848483	      805.1215217820	      -12.4968328369	        0.2087540489	        0.0000000000	        0.0414760869	       -3.2912821319	       63.8602340473	      -11.4714416488	       -0.2751591249	        0.0000000000	       -0.0223884276	        0.0000000000	        0.0000000000	        0.0000000000	        0.0000000000	        0.0000000000	        0.0000000000	
        0.0882421877	      -94.1063041693	      794.1210167460	      -12.4820437595	        0.2116166244	        0.0000000000	        0.0419947241	       -8.4644857637	       25.4647684721	       -5.4756914493	       -0.2755394843	        0.0000000000	       -0.0220401785	        0.0000000000	        0.0000000000	        0.0000000000	        0.0000000000	        0.0000000000	        0.0000000000	
        0.0992724612	      -84.7487590590	      779.2850681965	      -13.1670218096	        0.2146377599	        0.0000000000	        0.0422862432	        0.0934373566	       -0.0918673206	        0.0025743213	        0.0000000000	        0.0000000000	        0.0000000000	        0.0000000000	        0.0000000000	        0.0000000000	        0.0000000000	        0.0000000000	        0.0000000000	
        0.1103027346	      -73.4756684925	      756.7384098980	      -14.1921784888	        0.2178185607	        0.0000000000	        0.0424457556	        0.0002301438	       -0.0001860500	       -0.0000109117	        0.0000000000	        0.0000000000	        0.0000000000	        0.0000000000	        0.0000000000	        0.0000000000	        0.0000000000	        0.0000000000	        0.0000000000	
        0.1213330081	      -63.1690913963	      730.1947009364	      -14.7139597090	        0.2214680049	        0.0000000000	        0.0425387157	        0.0000802032	       -0.0000562217	       -0.0000053442	        0.0000000000	        0.0000000000	        0.0000000000	        0.0000000000	        0.0000000000	        0.0000000000	        0.0000000000	        0.0000000000	        0.0000000000	
        0.1323632816	      -54.8307922267	      706.1116751904	      -15.0910539693	        0.2259119800	        0.0000000000	        0.0425108800	        0.0007129018	       -0.0004476024	       -0.0000537414	        0.0000000000	        0.0000000000	        0.0000000000	        0.0000000000	        0.0000000000	        0.0000000000	        0.0000000000	        0.0000000000	        0.0000000000	
        0.1433935550	      -46.7020235854	      681.9029752712	      -15.8091079518	        0.2305944496	        0.0000000000	        0.0424596443	        0.0043188282	       -0.0024822345	       -0.0003485219	        0.0000000000	        0.0000000000	        0.0000000000	        0.0000000000	        0.0000000000	        0.0000000000	        0.0000000000	        0.0000000000	        0.0000000000	
        0.1544238285	      -38.8365995537	      657.8432772224	      -16.3774902411	        0.2352119803	        0.0000000000	        0.0424581096	       -0.0278750425	        0.0148808541	        0.0023560922	        0.0000000000	        0.0000000000	        0.0000000000	        0.0000000000	        0.0000000000	        0.0000000000	        0.0000000000	        0.0000000000	        0.0000000000	
        0.1654541019	      -31.9644915689	      635.9156508459	      -16.8107064772	        0.2397425880	        0.0000000000	        0.0425053721	       -0.0191499179	        0.0096039702	        0.0016743868	        0.0000000000	        0.0000000000	        0.0000000000	        0.0000000000	        0.0000000000	        0.0000000000	        0.0000000000	        0.0000000000	        0.0000000000	
        0.1764843754	      -26.0249292585	      617.2631705662	      -17.3706980447	        0.2442320384	        0.0000000000	        0.0425802524	       -0.0137089606	        0.0065191162	        0.0012274347	        0.0000000000	        0.0000000000	        0.0000000000	        0.0000000000	        0.0000000000	        0.0000000000	        0.0000000000	        0.0000000000	        0.0000000000	
        0.1875146489	      -20.8630740287	      602.6884112308	      -17.7586221016	        0.2489634114	        0.0000000000	        0.0426620109	       -0.0127835531	        0.0058089497	        0.0011619192	        0.0000000000	        0.0000000000	        0.0000000000	        0.0000000000	        0.0000000000	        0.0000000000	        0.0000000000	        0.0000000000	        0.0000000000	
        0.1985449223	      -17.1234416342	      592.6419368733	      -17.9143376031	        0.2540407949	        0.0000000000	        0.0427234087	       -0.0159811045	        0.0069808075	        0.0014642867	        0.0000000000	        0.0000000000	        0.0000000000	        0.0000000000	        0.0000000000	        0.0000000000	        0.0000000000	        0.0000000000	        0.0000000000	
        0.2095751958	      -14.2310341773	      586.3789210119	      -17.9533409259	        0.2594042211	        0.0000000000	        0.0427456825	       -0.0256683850	        0.0108312311	        0.0023494444	        0.0000000000	        0.0000000000	        0.0000000000	        0.0000000000	        0.0000000000	        0.0000000000	        0.0000000000	        0.0000000000	        0.0000000000	
        0.2206054693	      -12.8067136763	      583.3477455652	      -17.9560801756	        0.2650325462	        0.0000000000	        0.0427220691	       -0.0491866442	        0.0201382687	        0.0044724748	        0.0000000000	        0.0000000000	        0.0000000000	        0.0000000000	        0.0000000000	        0.0000000000	        0.0000000000	        0.0000000000	        0.0000000000	
        0.2316357427	      -12.0292862590	      582.4430907278	      -17.9948894256	        0.2707601583	        0.0000000000	        0.0426597752	       -0.1032095956	        0.0411673164	        0.0092884360	        0.0000000000	        0.0000000000	        0.0000000000	        0.0000000000	        0.0000000000	        0.0000000000	        0.0000000000	        0.0000000000	        0.0000000000	
